<?xml version="1.0" standalone="no"?><!DOCTYPE svg PUBLIC "-//W3C//DTD SVG 1.1//EN" "http://www.w3.org/Graphics/SVG/1.1/DTD/svg11.dtd"><svg t="1606317344826" class="icon" viewBox="0 0 1024 1024" version="1.1" xmlns="http://www.w3.org/2000/svg" p-id="2666" xmlns:xlink="http://www.w3.org/1999/xlink" width="200" height="200"><defs><style type="text/css"></style></defs><path d="M511.082 688.48A343.781 343.781 0 1 1 854.864 344.7a344.24 344.24 0 0 1-343.782 343.78z m0-621.009a275.392 275.392 0 1 0 275.392 275.392 275.392 275.392 0 0 0-275.392-275.85z" fill="#515151" p-id="2667"></path><path d="M69.078 1024h-3.213a33.506 33.506 0 0 1-30.293-36.26 481.936 481.936 0 0 1 298.8-410.334 33.506 33.506 0 0 1 27.08 61.045 413.088 413.088 0 0 0-259.327 355.256A33.506 33.506 0 0 1 69.078 1024z m884.468 0a33.506 33.506 0 0 1-33.047-30.293 413.088 413.088 0 0 0-156.056-288.244 33.506 33.506 0 1 1 45.899-50.03A472.757 472.757 0 0 1 988.429 987.74a33.506 33.506 0 0 1-30.293 36.26z" fill="#515151" p-id="2668"></path></svg>