<?xml version="1.0" standalone="no"?><!DOCTYPE svg PUBLIC "-//W3C//DTD SVG 1.1//EN" "http://www.w3.org/Graphics/SVG/1.1/DTD/svg11.dtd"><svg t="1607358799676" class="icon" viewBox="0 0 1024 1024" version="1.1" xmlns="http://www.w3.org/2000/svg" p-id="53666" xmlns:xlink="http://www.w3.org/1999/xlink" width="200" height="200"><defs><style type="text/css"></style></defs><path d="M198.8 198h23.6v613.5h-23.6zM803.2 198h23.6v613.5h-23.6z" p-id="53667"></path><path d="M198.848 221.64v-23.6h615.5v23.6z" p-id="53668"></path><path d="M218.576 346.159l-16.405-16.405 127.35-127.348 16.404 16.404zM218.638 477.344l-16.404-16.404 263.465-263.466 16.405 16.405zM218.639 608.412l-16.405-16.405 392.44-392.44 16.405 16.404zM217.373 738.34l-16.405-16.405 519.719-519.718 16.404 16.404zM273.113 807.04l-16.404-16.405L803.933 243.41l16.405 16.405zM406.674 808.563l-16.405-16.405L809.65 372.777l16.405 16.405zM530.625 810.35l-16.405-16.404 293.447-293.447 16.404 16.405zM686.86 809.214l-16.405-16.404 138.662-138.663 16.405 16.405z" p-id="53669"></path><path d="M198.833 811.556v-23.6h615.5v23.6z" p-id="53670"></path></svg>