<?xml version="1.0" standalone="no"?><!DOCTYPE svg PUBLIC "-//W3C//DTD SVG 1.1//EN" "http://www.w3.org/Graphics/SVG/1.1/DTD/svg11.dtd"><svg t="1607011489488" class="icon" viewBox="0 0 1024 1024" version="1.1" xmlns="http://www.w3.org/2000/svg" p-id="11213" xmlns:xlink="http://www.w3.org/1999/xlink" width="200" height="200"><defs><style type="text/css"></style></defs><path d="M512.001 25.6C229.216 25.6 25.6 229.216 25.6 512.001c0 282.771 203.615 491.521 486.401 491.521 282.791 0 486.401-208.751 486.401-491.521C998.402 229.216 794.792 25.6 512.001 25.6zM512.001 960.003C264.576 960.003 64 759.412 64 512.001 64 264.576 264.576 64 512.001 64s448.001 200.575 448.001 448.001C960.002 759.412 759.432 960.003 512.001 960.003zM779.302 512.001 538.881 512.001l0.015-288.466c0-17.423-2.08-32.123-19.745-32.123-17.68 0-23.79 14.683-23.805 32.123l0.015 299.826c0 0.065-0.015 0.095-0.015 0.16 0 0.065 0.015 0.095 0.015 0.16l0 0.29c0 7.71 2.927 14.7 7.6 20.19 5.775 6.895 14.305 11.36 23.95 11.36l252.421 0c17.44 0 31.55-5.845 31.55-23.525C810.902 514.316 796.752 512.001 779.302 512.001z" p-id="11214"></path></svg>