<?xml version="1.0" standalone="no"?><!DOCTYPE svg PUBLIC "-//W3C//DTD SVG 1.1//EN" "http://www.w3.org/Graphics/SVG/1.1/DTD/svg11.dtd"><svg t="1607359073238" class="icon" viewBox="0 0 1024 1024" version="1.1" xmlns="http://www.w3.org/2000/svg" p-id="54091" xmlns:xlink="http://www.w3.org/1999/xlink" width="200" height="200"><defs><style type="text/css"></style></defs><path d="M513.05 262.81c-151.49 159.34-151.48 315.52 0.2 478.56 148.5-161.12 148.43-317.43-0.2-478.56z m-17.4-54.32a25.27 25.27 0 0 1 35.63 0.28C711.94 391.16 722.41 578.89 562.7 761.9c205.94 41 335.11-38.59 395.49-243.19q-108.51-24.36-189.82-5.44A25.27 25.27 0 1 1 757 464q103.51-23.89 238.87 11.85a25.28 25.28 0 0 1 18.06 30.72C947.37 766.11 780.09 867.38 522.4 804.71l-7-1.67a25.81 25.81 0 0 1-6-0.23l2.61-0.71c-263.55 68-434.43-32.52-501.88-295.5a25.28 25.28 0 0 1 18.06-30.72Q163.43 440.38 267 464a25.27 25.27 0 1 1-11.35 49.24q-81.37-18.76-189.83 5.43C126.4 724 256.23 803.44 463.31 761.49c-162.6-184.88-151.87-372.67 32.34-553z" p-id="54092"></path></svg>