<?xml version="1.0" standalone="no"?><!DOCTYPE svg PUBLIC "-//W3C//DTD SVG 1.1//EN" "http://www.w3.org/Graphics/SVG/1.1/DTD/svg11.dtd"><svg t="1607269193554" class="icon" viewBox="0 0 1024 1024" version="1.1" xmlns="http://www.w3.org/2000/svg" p-id="7542" xmlns:xlink="http://www.w3.org/1999/xlink" width="200" height="200"><defs><style type="text/css"></style></defs><path d="M880.4 538.4c-1.3 3.6-1.6 7.3-3.4 10.8-0.8 1.6-2.4 2.5-3.4 4.1-2.5 4.1-5.9 7.5-9.3 11.1-3.1 3.2-5.9 6.4-9.5 8.9-1.5 1.1-2.5 2.8-4.1 3.9L267.6 936c-11.6 11.7-26.8 19.3-43.1 21.4-3.4 0.7-6.6 1.7-10.1 2l-0.8 0.1c-0.6 0-1-0.3-1.6-0.4-19.3 0.6-37.8-7.2-50.9-21.3-0.3-0.2-0.5-0.6-0.8-0.9-4.1-4.4-8.6-8.4-11.6-14-1-1.9-1-4-1.9-6-1.9-3.8-2.7-8-3.8-12.1-1.3-4.8-2.6-9.3-2.9-14.2-0.1-2-1.1-3.7-1.1-5.7V140.5c-0.3-13.3 1.5-26.7 8.1-39 12-22.2 35.1-36.1 60.4-36.1 2.2-0.2 4-1.2 6.1-1.2 1 0 1.8 0.5 2.8 0.6l0.6 0.1c20.1 0.9 38.9 10.1 52.1 25.3l582.1 357.1c2.2 1.3 3.4 3.5 5.4 5.1 1.2 0.9 2.2 2.1 3.3 3.1 6.2 5.3 11.5 11.7 15.6 18.8l0.8 1c0.4 0.8 0.4 1.7 0.7 2.5 3.7 7.4 6.2 15 7.4 23.3 0.3 2.2 0.3 4.3 0.5 6.5 0.4 6.9 0 13.8-1.3 20.6-0.6 3.5-2 6.8-3.2 10.2zM288.3 274.2" p-id="7543"></path></svg>