<?xml version="1.0" standalone="no"?><!DOCTYPE svg PUBLIC "-//W3C//DTD SVG 1.1//EN" "http://www.w3.org/Graphics/SVG/1.1/DTD/svg11.dtd"><svg t="1607359365263" class="icon" viewBox="0 0 1024 1024" version="1.1" xmlns="http://www.w3.org/2000/svg" p-id="54866" xmlns:xlink="http://www.w3.org/1999/xlink" width="200" height="200"><defs><style type="text/css"></style></defs><path d="M728.746 968.364h-185.107v-84.623c0-54.497-44.307-98.842-98.806-98.842s-98.843 44.346-98.843 98.842v84.623h-185.145c-58.717 0-106.459-47.78-106.459-106.495l0.262-185.107h84.397c54.498 0 98.806-44.326 98.806-98.806 0-54.499-44.308-98.845-98.806-98.845h-84.47l0.261-185.126c0-58.697 47.554-106.477 106.011-106.477h155.657v-46.398c0-70.754 57.559-128.332 128.333-128.332 70.735 0 128.294 57.578 128.294 128.332v46.398h155.618c58.718 0 106.495 47.779 106.495 106.496v155.619h46.399c70.773 0 128.332 57.578 128.332 128.332 0 70.735-57.558 128.295-128.332 128.295h-46.399v155.618c0 58.715-47.778 106.496-106.496 106.496zM581.864 930.14h146.882c37.664 0 68.274-30.627 68.274-68.272v-193.842h84.62c49.684 0 90.11-40.41 90.11-90.073 0-49.684-40.426-90.109-90.11-90.109h-84.62v-193.841c0-37.646-30.61-68.272-68.274-68.272h-193.841v-84.622c0-49.683-40.388-90.109-90.073-90.109-49.683 0-90.109 40.426-90.109 90.109v84.622h-193.879c-37.364 0-67.786 30.626-67.786 68.272l-0.187 146.883h46.175c75.551 0 137.030 61.497 137.030 137.068 0 75.55-61.478 137.028-137.030 137.028h-46.247l-0.188 146.905c0 37.627 30.609 68.253 68.235 68.253h146.922v-46.4c0-75.569 61.478-137.066 137.067-137.066 75.552 0 137.030 61.497 137.030 137.066v46.4z" p-id="54867"></path></svg>