<?xml version="1.0" standalone="no"?><!DOCTYPE svg PUBLIC "-//W3C//DTD SVG 1.1//EN" "http://www.w3.org/Graphics/SVG/1.1/DTD/svg11.dtd"><svg t="1607347230341" class="icon" viewBox="0 0 1024 1024" version="1.1" xmlns="http://www.w3.org/2000/svg" p-id="34978" xmlns:xlink="http://www.w3.org/1999/xlink" width="200" height="200"><defs><style type="text/css"></style></defs><path d="M512.1 602.7c-26.5 0-48-21.5-48-48V48c0-26.5 21.5-48 48-48s48 21.5 48 48v506.7c0 26.5-21.5 48-48 48z" p-id="34979" fill="#ffffff"></path><path d="M512.1 1024c-259.3 0-470.3-211-470.3-470.3 0-148.8 68.6-285.6 188.1-375.3 21.2-15.9 51.3-11.6 67.2 9.5 15.9 21.2 11.6 51.3-9.6 67.2-95.2 71.5-149.7 180.3-149.7 298.6 0 206.4 167.9 374.3 374.3 374.3s374.3-167.9 374.3-374.3c0-118.3-54.6-227.1-149.7-298.6-21.2-15.9-25.5-46-9.6-67.2 15.9-21.2 46-25.5 67.2-9.5 119.5 89.8 188 226.6 188 375.4 0 259.2-210.9 470.2-470.2 470.2z" p-id="34980" fill="#ffffff"></path></svg>