<?xml version="1.0" standalone="no"?><!DOCTYPE svg PUBLIC "-//W3C//DTD SVG 1.1//EN" "http://www.w3.org/Graphics/SVG/1.1/DTD/svg11.dtd"><svg t="1606317209093" class="icon" viewBox="0 0 1024 1024" version="1.1" xmlns="http://www.w3.org/2000/svg" p-id="14606" xmlns:xlink="http://www.w3.org/1999/xlink" width="200" height="200"><defs><style type="text/css"></style></defs><path d="M891.2 575.6c-4.9 29.5-13.2 58.3-25 86.1-19.4 45.8-47.1 86.9-82.4 122.2s-76.4 63-122.2 82.4c-47.4 20-97.7 30.2-149.6 30.2-51.9 0-102.2-10.2-149.6-30.2-45.8-19.4-86.9-47.1-122.2-82.4s-63-76.4-82.4-122.2c-20-47.4-30.2-97.7-30.2-149.6 0-51.9 10.2-102.2 30.2-149.6 19.4-45.8 47.1-86.9 82.4-122.2s76.4-63 122.2-82.4c47.4-20 97.7-30.2 149.6-30.2 51.9 0 102.2 10.2 149.6 30.2 41.1 17.4 78.4 41.5 111.1 71.8l-52.4 52.1L875 298.3l-21.6-148.6-35.8 35.6c-38.6-36.1-82.7-64.8-131.3-85.4C631 76.6 572.4 64.8 512 64.8S393 76.6 337.9 100c-53.3 22.5-101.1 54.8-142.2 95.9S122.4 284.7 99.8 338c-23.3 55.2-35.2 113.8-35.2 174.1 0 60.4 11.8 119 35.2 174.1 22.5 53.3 54.8 101.1 95.9 142.2s88.9 73.3 142.2 95.9c55.2 23.3 113.8 35.2 174.1 35.2 60.4 0 119-11.8 174.2-35.2 53.3-22.5 101.1-54.8 142.2-95.9s73.3-88.9 95.9-142.2c15.5-36.6 25.9-74.6 31.1-113.7l-64.2 3.1z" p-id="14607"></path><path d="M682 590.1H466.1c-16 0-29-14.4-29-32s13.1-32 29-32H682c16 0 29 14.4 29 32s-13.1 32-29 32z" p-id="14608"></path><path d="M501.1 321.8v235.9c0 16-14.4 29-32 29s-32-13.1-32-29V321.8c0-16 14.4-29 32-29s32 13 32 29z" p-id="14609"></path></svg>